<svg width="16" height="15" viewBox="0 0 16 15" fill="none" xmlns="http://www.w3.org/2000/svg">
<path d="M7.70468 1.35307H2.89857C2.53438 1.35307 2.1851 1.49774 1.92758 1.75526C1.67006 2.01278 1.52539 2.36205 1.52539 2.72624V12.3385C1.52539 12.7027 1.67006 13.0519 1.92758 13.3095C2.1851 13.567 2.53438 13.7116 2.89857 13.7116H12.5108C12.875 13.7116 13.2243 13.567 13.4818 13.3095C13.7393 13.0519 13.884 12.7027 13.884 12.3385V7.53236M12.0817 1.0956C12.3548 0.822456 12.7253 0.669006 13.1116 0.669006C13.4978 0.669006 13.8683 0.822456 14.1414 1.0956C14.4146 1.36874 14.568 1.7392 14.568 2.12548C14.568 2.51176 14.4146 2.88222 14.1414 3.15536L7.95323 9.34426C7.7902 9.50715 7.58879 9.62639 7.36757 9.69099L5.395 10.2677C5.33592 10.285 5.27329 10.286 5.21368 10.2707C5.15406 10.2554 5.09965 10.2244 5.05613 10.1809C5.01262 10.1374 4.9816 10.083 4.96632 10.0234C4.95105 9.96375 4.95208 9.90112 4.96931 9.84204L5.54605 7.86947C5.61095 7.64843 5.73042 7.44726 5.89346 7.2845L12.0817 1.0956Z" stroke="#090C15" stroke-opacity="0.8" stroke-width="1.19841" stroke-linecap="round" stroke-linejoin="round"/>
</svg>
