<svg width="4" height="18" viewBox="0 0 4 18" fill="none" xmlns="http://www.w3.org/2000/svg">
<path d="M2.55232 9.18237C2.55232 8.63082 2.1052 8.18369 1.55365 8.18369C1.0021 8.18369 0.554977 8.63082 0.554977 9.18237C0.554977 9.73392 1.0021 10.181 1.55365 10.181C2.1052 10.181 2.55232 9.73392 2.55232 9.18237Z" fill="black"/>
<path d="M2.55232 2.19165C2.55232 1.6401 2.1052 1.19298 1.55365 1.19298C1.0021 1.19298 0.554977 1.6401 0.554977 2.19165C0.554977 2.74321 1.0021 3.19033 1.55365 3.19033C2.1052 3.19033 2.55232 2.7432 2.55232 2.19165Z" fill="black"/>
<path d="M2.55232 16.1731C2.55232 15.6215 2.1052 15.1744 1.55365 15.1744C1.0021 15.1744 0.554977 15.6215 0.554977 16.1731C0.554977 16.7246 1.0021 17.1718 1.55365 17.1718C2.1052 17.1718 2.55232 16.7246 2.55232 16.1731Z" fill="black"/>
<path d="M2.55232 9.18237C2.55232 8.63082 2.1052 8.18369 1.55365 8.18369C1.0021 8.18369 0.554977 8.63082 0.554977 9.18237C0.554977 9.73392 1.0021 10.181 1.55365 10.181C2.1052 10.181 2.55232 9.73392 2.55232 9.18237Z" stroke="black" stroke-width="0.998673" stroke-linecap="round" stroke-linejoin="round"/>
<path d="M2.55232 2.19165C2.55232 1.6401 2.1052 1.19298 1.55365 1.19298C1.0021 1.19298 0.554977 1.6401 0.554977 2.19165C0.554977 2.74321 1.0021 3.19033 1.55365 3.19033C2.1052 3.19033 2.55232 2.7432 2.55232 2.19165Z" stroke="black" stroke-width="0.998673" stroke-linecap="round" stroke-linejoin="round"/>
<path d="M2.55232 16.1731C2.55232 15.6215 2.1052 15.1744 1.55365 15.1744C1.0021 15.1744 0.554977 15.6215 0.554977 16.1731C0.554977 16.7246 1.0021 17.1718 1.55365 17.1718C2.1052 17.1718 2.55232 16.7246 2.55232 16.1731Z" stroke="black" stroke-width="0.998673" stroke-linecap="round" stroke-linejoin="round"/>
</svg>
